<svg xmlns="http://www.w3.org/2000/svg" viewBox="0 0 512 512" width="512" height="512">
  <defs>
    <linearGradient id="iconGrad512" x1="0%" y1="0%" x2="100%" y2="100%">
      <stop offset="0%" stopColor="#10B981" />
      <stop offset="100%" stopColor="#059669" />
    </linearGradient>
    <filter id="glow512">
      <feGaussianBlur stdDeviation="4" result="coloredBlur" />
      <feMerge>
        <feMergeNode in="coloredBlur" />
        <feMergeNode in="SourceGraphic" />
      </feMerge>
    </filter>
  </defs>

  <!-- White background for better visibility -->
  <rect width="512" height="512" fill="#ffffff" />

  <!-- Decorative outer rings -->
  <circle cx="256" cy="256" r="240" fill="none" stroke="#10B981" strokeWidth="2" opacity="0.1" />
  <circle cx="256" cy="256" r="230" fill="none" stroke="#10B981" strokeWidth="1" opacity="0.08" />

  <!-- Central hub node - large and prominent -->
  <circle cx="256" cy="256" r="50" fill="url(#iconGrad512)" filter="url(#glow512)" />

  <!-- Inner detail circle -->
  <circle cx="256" cy="256" r="35" fill="none" stroke="#ffffff" strokeWidth="3" opacity="0.8" />

  <!-- Corner nodes - representing ML models/data sources -->
  <circle cx="128" cy="128" r="38" fill="#10B981" opacity="0.85" />
  <circle cx="384" cy="128" r="38" fill="#10B981" opacity="0.85" />
  <circle cx="128" cy="384" r="38" fill="#10B981" opacity="0.85" />
  <circle cx="384" cy="384" r="38" fill="#10B981" opacity="0.85" />

  <!-- Top and bottom middle nodes -->
  <circle cx="256" cy="100" r="32" fill="#10B981" opacity="0.75" />
  <circle cx="256" cy="412" r="32" fill="#10B981" opacity="0.75" />

  <!-- Left and right middle nodes -->
  <circle cx="100" cy="256" r="32" fill="#10B981" opacity="0.75" />
  <circle cx="412" cy="256" r="32" fill="#10B981" opacity="0.75" />

  <!-- Primary radial connections from center -->
  <line x1="256" y1="256" x2="128" y2="128" stroke="#10B981" strokeWidth="5" opacity="0.65" />
  <line x1="256" y1="256" x2="384" y2="128" stroke="#10B981" strokeWidth="5" opacity="0.65" />
  <line x1="256" y1="256" x2="128" y2="384" stroke="#10B981" strokeWidth="5" opacity="0.65" />
  <line x1="256" y1="256" x2="384" y2="384" stroke="#10B981" strokeWidth="5" opacity="0.65" />

  <!-- Connections to middle nodes -->
  <line x1="256" y1="256" x2="256" y2="100" stroke="#10B981" strokeWidth="4" opacity="0.6" />
  <line x1="256" y1="256" x2="256" y2="412" stroke="#10B981" strokeWidth="4" opacity="0.6" />
  <line x1="256" y1="256" x2="100" y2="256" stroke="#10B981" strokeWidth="4" opacity="0.6" />
  <line x1="256" y1="256" x2="412" y2="256" stroke="#10B981" strokeWidth="4" opacity="0.6" />

  <!-- Diagonal cross connections -->
  <line x1="128" y1="128" x2="384" y2="384" stroke="#10B981" strokeWidth="3" opacity="0.35" strokeDasharray="8,6" />
  <line x1="384" y1="128" x2="128" y2="384" stroke="#10B981" strokeWidth="3" opacity="0.35" strokeDasharray="8,6" />

  <!-- Horizontal and vertical auxiliary lines -->
  <line x1="256" y1="100" x2="128" y2="128" stroke="#10B981" strokeWidth="2.5" opacity="0.3" />
  <line x1="256" y1="100" x2="384" y2="128" stroke="#10B981" strokeWidth="2.5" opacity="0.3" />
  <line x1="100" y1="256" x2="128" y2="128" stroke="#10B981" strokeWidth="2.5" opacity="0.3" />
  <line x1="100" y1="256" x2="128" y2="384" stroke="#10B981" strokeWidth="2.5" opacity="0.3" />

  <!-- Top accent bar - representing data flow direction -->
  <rect x="221" y="40" width="70" height="12" rx="6" fill="url(#iconGrad512)" opacity="0.9" />

  <!-- Bottom accent bar -->
  <rect x="221" y="460" width="70" height="12" rx="6" fill="url(#iconGrad512)" opacity="0.7" />
</svg>
