<svg xmlns="http://www.w3.org/2000/svg" viewBox="0 0 192 192" width="192" height="192">
  <defs>
    <linearGradient id="iconGrad192" x1="0%" y1="0%" x2="100%" y2="100%">
      <stop offset="0%" stopColor="#10B981" />
      <stop offset="100%" stopColor="#059669" />
    </linearGradient>
    <filter id="glow192">
      <feGaussianBlur stdDeviation="2" result="coloredBlur" />
      <feMerge>
        <feMergeNode in="coloredBlur" />
        <feMergeNode in="SourceGraphic" />
      </feMerge>
    </filter>
  </defs>

  <!-- White background for better visibility -->
  <rect width="192" height="192" fill="#ffffff" />

  <!-- Outer ring -->
  <circle cx="96" cy="96" r="88" fill="none" stroke="#10B981" strokeWidth="1" opacity="0.15" />

  <!-- Central hub node -->
  <circle cx="96" cy="96" r="20" fill="url(#iconGrad192)" filter="url(#glow192)" />

  <!-- Corner nodes -->
  <circle cx="48" cy="48" r="14" fill="#10B981" opacity="0.85" />
  <circle cx="144" cy="48" r="14" fill="#10B981" opacity="0.85" />
  <circle cx="48" cy="144" r="14" fill="#10B981" opacity="0.85" />
  <circle cx="144" cy="144" r="14" fill="#10B981" opacity="0.85" />

  <!-- Primary connections -->
  <line x1="96" y1="96" x2="48" y2="48" stroke="#10B981" strokeWidth="2.5" opacity="0.65" />
  <line x1="96" y1="96" x2="144" y2="48" stroke="#10B981" strokeWidth="2.5" opacity="0.65" />
  <line x1="96" y1="96" x2="48" y2="144" stroke="#10B981" strokeWidth="2.5" opacity="0.65" />
  <line x1="96" y1="96" x2="144" y2="144" stroke="#10B981" strokeWidth="2.5" opacity="0.65" />

  <!-- Cross connections -->
  <line x1="48" y1="48" x2="144" y2="144" stroke="#10B981" strokeWidth="1.8" opacity="0.35" strokeDasharray="3,3" />
  <line x1="144" y1="48" x2="48" y2="144" stroke="#10B981" strokeWidth="1.8" opacity="0.35" strokeDasharray="3,3" />

  <!-- Horizontal/Vertical connections -->
  <line x1="96" y1="48" x2="96" y2="144" stroke="#10B981" strokeWidth="1.5" opacity="0.3" />
  <line x1="48" y1="96" x2="144" y2="96" stroke="#10B981" strokeWidth="1.5" opacity="0.3" />

  <!-- Top flow accent -->
  <rect x="81" y="20" width="30" height="5" rx="2.5" fill="url(#iconGrad192)" opacity="0.85" />
</svg>
